<?xml version="1.0"?>
<svg xmlns="http://www.w3.org/2000/svg" xmlns:xlink="http://www.w3.org/1999/xlink" xmlns:svgjs="http://svgjs.com/svgjs" version="1.1" width="512" height="512" x="0" y="0" viewBox="0 0 512 512" style="enable-background:new 0 0 512 512" xml:space="preserve" class=""><g><g xmlns="http://www.w3.org/2000/svg"><circle cx="256" cy="316" r="45" fill="#e05858" data-original="#000000" style="" class=""/><path d="m196 421v15c0 8.291 6.709 15 15 15h90c8.291 0 15-6.709 15-15v-15c0-33.091-26.909-60-60-60s-60 26.909-60 60z" fill="#e05858" data-original="#000000" style="" class=""/><circle cx="60" cy="316" r="45" fill="#e05858" data-original="#000000" style="" class=""/><path d="m15 451h90c8.291 0 15-6.709 15-15v-15c0-33.091-26.909-60-60-60s-60 26.909-60 60v15c0 8.291 6.709 15 15 15z" fill="#e05858" data-original="#000000" style="" class=""/><circle cx="452" cy="316" r="45" fill="#e05858" data-original="#000000" style="" class=""/><path d="m452 361c-33.091 0-60 26.909-60 60v15c0 8.291 6.709 15 15 15h90c8.291 0 15-6.709 15-15v-15c0-33.091-26.909-60-60-60z" fill="#e05858" data-original="#000000" style="" class=""/><path d="m497 61h-482c-8.291 0-15 6.709-15 15s6.709 15 15 15h196v45c0 8.291 6.709 15 15 15h15v30h-45c-3.984 0-7.793 1.582-10.605 4.395l-30 30c-5.859 5.859-5.859 15.352 0 21.211l30 30c5.859 5.859 15.352 5.859 21.211 0s5.859-15.352 0-21.211l-19.395-19.395 15-15h107.578l15 15-19.395 19.395c-5.859 5.859-5.859 15.352 0 21.211s15.351 5.86 21.211 0l30-30c5.859-5.859 5.859-15.352 0-21.211l-30-30c-2.812-2.813-6.621-4.395-10.605-4.395h-45v-30h15c8.291 0 15-6.709 15-15v-45h196c8.291 0 15-6.709 15-15s-6.709-15-15-15z" fill="#e05858" data-original="#000000" style="" class=""/></g></g></svg>
